<svg width="739" height="317" viewBox="0 0 739 317" fill="none" xmlns="http://www.w3.org/2000/svg">
<g clip-path="url(#clip0_19_17)">
<rect width="739" height="317" fill="white"/>
<path d="M126.623 147V36.4546H170.884C179.017 36.4546 185.8 37.6601 191.233 40.0711C196.667 42.4821 200.751 45.8287 203.486 50.1109C206.221 54.3571 207.589 59.251 207.589 64.7927C207.589 69.1109 206.725 72.9073 204.998 76.1819C203.27 79.4205 200.895 82.0834 197.873 84.1705C194.886 86.2216 191.467 87.679 187.617 88.5427V89.6222C191.827 89.8021 195.767 90.9896 199.438 93.1847C203.144 95.3798 206.149 98.4565 208.452 102.415C210.755 106.337 211.907 111.015 211.907 116.449C211.907 122.314 210.449 127.55 207.535 132.156C204.656 136.726 200.392 140.343 194.742 143.006C189.092 145.669 182.129 147 173.853 147H126.623ZM149.995 127.892H169.049C175.562 127.892 180.312 126.651 183.299 124.168C186.285 121.649 187.779 118.302 187.779 114.128C187.779 111.069 187.041 108.37 185.566 106.031C184.09 103.692 181.985 101.857 179.25 100.526C176.552 99.1942 173.331 98.5285 169.589 98.5285H149.995V127.892ZM149.995 82.7131H167.321C170.524 82.7131 173.367 82.1554 175.85 81.0398C178.369 79.8883 180.348 78.269 181.787 76.1819C183.263 74.0948 184 71.5938 184 68.679C184 64.6847 182.579 61.4641 179.736 59.0171C176.929 56.5701 172.935 55.3466 167.753 55.3466H149.995V82.7131ZM242.077 36.4546V147H219.083V36.4546H242.077ZM290.357 148.619C281.973 148.619 274.722 146.838 268.604 143.276C262.523 139.677 257.827 134.675 254.516 128.27C251.206 121.829 249.55 114.362 249.55 105.869C249.55 97.305 251.206 89.8201 254.516 83.4148C257.827 76.9735 262.523 71.9716 268.604 68.4091C274.722 64.8107 281.973 63.0114 290.357 63.0114C298.742 63.0114 305.975 64.8107 312.056 68.4091C318.174 71.9716 322.888 76.9735 326.198 83.4148C329.509 89.8201 331.164 97.305 331.164 105.869C331.164 114.362 329.509 121.829 326.198 128.27C322.888 134.675 318.174 139.677 312.056 143.276C305.975 146.838 298.742 148.619 290.357 148.619ZM290.465 130.807C294.28 130.807 297.464 129.727 300.019 127.568C302.574 125.373 304.499 122.386 305.795 118.608C307.126 114.83 307.792 110.529 307.792 105.707C307.792 100.885 307.126 96.5853 305.795 92.8069C304.499 89.0285 302.574 86.0417 300.019 83.8466C297.464 81.6516 294.28 80.554 290.465 80.554C286.615 80.554 283.376 81.6516 280.749 83.8466C278.158 86.0417 276.197 89.0285 274.866 92.8069C273.57 96.5853 272.923 100.885 272.923 105.707C272.923 110.529 273.57 114.83 274.866 118.608C276.197 122.386 278.158 125.373 280.749 127.568C283.376 129.727 286.615 130.807 290.465 130.807ZM375.976 148.619C367.484 148.619 360.179 146.82 354.061 143.222C347.98 139.587 343.302 134.549 340.027 128.108C336.789 121.667 335.169 114.254 335.169 105.869C335.169 97.377 336.807 89.9281 340.081 83.5228C343.392 77.0815 348.088 72.0616 354.169 68.4631C360.251 64.8287 367.484 63.0114 375.868 63.0114C383.101 63.0114 389.434 64.3249 394.868 66.9518C400.302 69.5787 404.602 73.2671 407.769 78.0171C410.935 82.7671 412.681 88.3448 413.004 94.7501H391.306C390.694 90.6118 389.074 87.2832 386.448 84.7643C383.857 82.2093 380.456 80.9319 376.246 80.9319C372.683 80.9319 369.571 81.9035 366.908 83.8466C364.281 85.7538 362.23 88.5427 360.754 92.2131C359.279 95.8836 358.541 100.328 358.541 105.546C358.541 110.835 359.261 115.333 360.7 119.04C362.176 122.746 364.245 125.571 366.908 127.514C369.571 129.457 372.683 130.429 376.246 130.429C378.873 130.429 381.23 129.889 383.317 128.81C385.44 127.73 387.185 126.165 388.553 124.114C389.956 122.027 390.874 119.526 391.306 116.611H413.004C412.645 122.944 410.917 128.522 407.823 133.344C404.764 138.13 400.536 141.872 395.138 144.571C389.74 147.27 383.353 148.619 375.976 148.619ZM440.962 123.142L441.016 95.5597H444.363L470.919 64.091H497.314L461.635 105.761H456.184L440.962 123.142ZM420.127 147V36.4546H443.121V147H420.127ZM471.945 147L447.547 110.889L462.877 94.6421L498.88 147H471.945Z" fill="black"/>
<path d="M126.623 267V156.455H170.884C179.017 156.455 185.8 157.66 191.233 160.071C196.667 162.482 200.751 165.829 203.486 170.111C206.221 174.357 207.589 179.251 207.589 184.793C207.589 189.111 206.725 192.907 204.998 196.182C203.27 199.421 200.895 202.083 197.873 204.171C194.886 206.222 191.467 207.679 187.617 208.543V209.622C191.827 209.802 195.767 210.99 199.438 213.185C203.144 215.38 206.149 218.456 208.452 222.415C210.755 226.337 211.907 231.015 211.907 236.449C211.907 242.314 210.449 247.55 207.535 252.156C204.656 256.726 200.392 260.343 194.742 263.006C189.092 265.669 182.129 267 173.853 267H126.623ZM149.995 247.892H169.049C175.562 247.892 180.312 246.651 183.299 244.168C186.285 241.649 187.779 238.302 187.779 234.128C187.779 231.069 187.041 228.37 185.566 226.031C184.09 223.692 181.985 221.857 179.25 220.526C176.552 219.194 173.331 218.528 169.589 218.528H149.995V247.892ZM149.995 202.713H167.321C170.524 202.713 173.367 202.155 175.85 201.04C178.369 199.888 180.348 198.269 181.787 196.182C183.263 194.095 184 191.594 184 188.679C184 184.685 182.579 181.464 179.736 179.017C176.929 176.57 172.935 175.347 167.753 175.347H149.995V202.713ZM233.279 298.091C230.364 298.091 227.629 297.857 225.074 297.389C222.556 296.957 220.468 296.4 218.813 295.716L223.995 278.551C226.694 279.379 229.123 279.829 231.282 279.901C233.477 279.973 235.366 279.469 236.949 278.389C238.569 277.31 239.882 275.474 240.89 272.884L242.239 269.375L212.498 184.091H236.68L253.844 244.977H254.708L272.035 184.091H296.378L264.154 275.96C262.607 280.422 260.502 284.309 257.839 287.619C255.212 290.966 251.883 293.539 247.853 295.338C243.823 297.173 238.965 298.091 233.279 298.091Z" fill="black"/>
<path d="M310.623 267V156.455H354.884C363.017 156.455 369.8 157.66 375.233 160.071C380.667 162.482 384.751 165.829 387.486 170.111C390.221 174.357 391.589 179.251 391.589 184.793C391.589 189.111 390.725 192.907 388.998 196.182C387.27 199.421 384.895 202.083 381.873 204.171C378.886 206.222 375.467 207.679 371.617 208.543V209.622C375.827 209.802 379.767 210.99 383.438 213.185C387.144 215.38 390.149 218.456 392.452 222.415C394.755 226.337 395.907 231.015 395.907 236.449C395.907 242.314 394.449 247.55 391.535 252.156C388.656 256.726 384.392 260.343 378.742 263.006C373.092 265.669 366.129 267 357.853 267H310.623ZM333.995 247.892H353.049C359.562 247.892 364.312 246.651 367.299 244.168C370.285 241.649 371.779 238.302 371.779 234.128C371.779 231.069 371.041 228.37 369.566 226.031C368.09 223.692 365.985 221.857 363.25 220.526C360.552 219.194 357.331 218.528 353.589 218.528H333.995V247.892ZM333.995 202.713H351.321C354.524 202.713 357.367 202.155 359.85 201.04C362.369 199.888 364.348 198.269 365.787 196.182C367.263 194.095 368 191.594 368 188.679C368 184.685 366.579 181.464 363.736 179.017C360.929 176.57 356.935 175.347 351.753 175.347H333.995V202.713ZM426.077 156.455V267H403.083V156.455H426.077ZM474.357 268.619C465.973 268.619 458.722 266.838 452.604 263.276C446.523 259.677 441.827 254.675 438.516 248.27C435.206 241.829 433.55 234.362 433.55 225.869C433.55 217.305 435.206 209.82 438.516 203.415C441.827 196.974 446.523 191.972 452.604 188.409C458.722 184.811 465.973 183.011 474.357 183.011C482.742 183.011 489.975 184.811 496.056 188.409C502.174 191.972 506.888 196.974 510.198 203.415C513.509 209.82 515.164 217.305 515.164 225.869C515.164 234.362 513.509 241.829 510.198 248.27C506.888 254.675 502.174 259.677 496.056 263.276C489.975 266.838 482.742 268.619 474.357 268.619ZM474.465 250.807C478.28 250.807 481.464 249.727 484.019 247.568C486.574 245.373 488.499 242.386 489.795 238.608C491.126 234.83 491.792 230.529 491.792 225.707C491.792 220.885 491.126 216.585 489.795 212.807C488.499 209.028 486.574 206.042 484.019 203.847C481.464 201.652 478.28 200.554 474.465 200.554C470.615 200.554 467.376 201.652 464.749 203.847C462.158 206.042 460.197 209.028 458.866 212.807C457.57 216.585 456.923 220.885 456.923 225.707C456.923 230.529 457.57 234.83 458.866 238.608C460.197 242.386 462.158 245.373 464.749 247.568C467.376 249.727 470.615 250.807 474.465 250.807ZM559.976 268.619C551.484 268.619 544.179 266.82 538.061 263.222C531.98 259.587 527.302 254.549 524.027 248.108C520.789 241.667 519.169 234.254 519.169 225.869C519.169 217.377 520.807 209.928 524.081 203.523C527.392 197.081 532.088 192.062 538.169 188.463C544.251 184.829 551.484 183.011 559.868 183.011C567.101 183.011 573.434 184.325 578.868 186.952C584.302 189.579 588.602 193.267 591.769 198.017C594.935 202.767 596.681 208.345 597.004 214.75H575.306C574.694 210.612 573.074 207.283 570.448 204.764C567.857 202.209 564.456 200.932 560.246 200.932C556.683 200.932 553.571 201.903 550.908 203.847C548.281 205.754 546.23 208.543 544.754 212.213C543.279 215.884 542.541 220.328 542.541 225.546C542.541 230.835 543.261 235.333 544.7 239.04C546.176 242.746 548.245 245.571 550.908 247.514C553.571 249.457 556.683 250.429 560.246 250.429C562.873 250.429 565.23 249.889 567.317 248.81C569.44 247.73 571.185 246.165 572.553 244.114C573.956 242.027 574.874 239.526 575.306 236.611H597.004C596.645 242.944 594.917 248.522 591.823 253.344C588.764 258.13 584.536 261.872 579.138 264.571C573.74 267.27 567.353 268.619 559.976 268.619ZM624.962 243.142L625.016 215.56H628.363L654.919 184.091H681.314L645.635 225.761H640.184L624.962 243.142ZM604.127 267V156.455H627.121V267H604.127ZM655.945 267L631.547 230.889L646.877 214.642L682.88 267H655.945ZM698.436 268.403C694.873 268.403 691.815 267.144 689.26 264.625C686.741 262.07 685.481 259.011 685.481 255.449C685.481 251.922 686.741 248.9 689.26 246.381C691.815 243.862 694.873 242.602 698.436 242.602C701.89 242.602 704.913 243.862 707.504 246.381C710.095 248.9 711.39 251.922 711.39 255.449C711.39 257.824 710.779 260.001 709.555 261.98C708.368 263.923 706.802 265.489 704.859 266.676C702.916 267.828 700.775 268.403 698.436 268.403Z" fill="black"/>
<path d="M54.0383 69.0357L41.065 69.0426L40.985 69.1227C40.905 69.2027 40.985 69.2827 40.985 69.2827L52.7442 76.0126C53.6313 76.4195 54.2049 77.3133 54.2049 78.4472L54.198 91.4204L54.278 91.5004C54.358 91.5805 54.4381 91.5004 54.4381 91.5004L61.1684 79.741C61.5753 78.8539 62.4691 78.2803 63.603 78.2802L76.5762 78.2733L76.6563 78.1933C76.7363 78.1132 76.6563 78.0332 76.6563 78.0332L64.8971 71.3033C64.01 70.8965 63.4364 70.0027 63.4364 68.8688L63.4433 55.8955L63.3633 55.8155C63.2832 55.7355 63.2032 55.8155 63.2032 55.8155L56.4729 67.5749C55.9126 68.4687 55.0121 69.0357 54.0383 69.0357ZM95.9668 37.8191L95.9662 68.9549C95.9662 69.9287 95.3125 70.9026 94.5054 71.3895L81.5321 78.8535C81.452 78.9336 81.532 79.0136 81.532 79.0136C81.532 79.0136 81.6121 79.0937 81.6921 79.0136C83.5531 78.6067 86.6346 78.2865 94.7454 78.2863C95.5592 78.2863 96.1261 78.8533 96.1261 79.667L96.0389 109.569C96.0388 110.383 95.4719 110.95 94.6581 110.95L63.529 110.957C62.5552 110.957 61.588 110.31 61.0945 109.496L53.6309 96.523C53.5509 96.443 53.4708 96.523 53.4708 96.523C53.4708 96.523 53.3908 96.603 53.4708 96.6831C53.8777 98.544 54.1978 101.626 54.1976 109.736C54.1976 110.55 53.6307 111.117 52.8169 111.117L22.8284 110.958C22.0146 110.958 21.4477 110.391 21.4477 109.577L21.5283 78.5211C21.5283 77.5473 22.182 76.5735 22.9891 76.0865L35.9625 68.6225C36.0425 68.5425 35.9625 68.4624 35.9625 68.4624C35.9625 68.4624 35.8824 68.3824 35.8024 68.4624C33.9414 68.8693 30.8599 69.1896 22.7491 69.1897C21.9353 69.1897 21.3684 68.6228 21.3684 67.809L21.3689 37.9806C21.369 37.1668 21.9359 36.5999 22.7497 36.5998L53.8855 36.5993C54.8593 36.5993 55.8264 37.2462 56.32 38.06L63.7836 51.0331C63.8636 51.1131 63.9436 51.0331 63.9436 51.0331C63.9436 51.0331 64.0237 50.953 63.9436 50.873C63.5368 49.0121 63.2167 45.9305 63.2168 37.8197C63.2168 37.006 63.7838 36.439 64.5976 36.439L94.426 36.4385C95.3999 36.4384 96.0468 37.0854 95.9668 37.8191Z" fill="#29296E"/>
<path d="M54.0383 225.204L41.065 225.211L40.985 225.291C40.905 225.371 40.985 225.451 40.985 225.451L52.7442 232.181C53.6313 232.587 54.2049 233.481 54.2049 234.615L54.198 247.588L54.278 247.668C54.358 247.748 54.4381 247.668 54.4381 247.668L61.1684 235.909C61.5753 235.022 62.4691 234.448 63.603 234.448L76.5762 234.441L76.6563 234.361C76.7363 234.281 76.6563 234.201 76.6563 234.201L64.8971 227.471C64.01 227.064 63.4364 226.171 63.4364 225.037L63.4433 212.064L63.3633 211.983C63.2832 211.903 63.2032 211.983 63.2032 211.983L56.4729 223.743C55.9126 224.637 55.0121 225.204 54.0383 225.204ZM95.9668 193.987L95.9662 225.123C95.9662 226.097 95.3125 227.071 94.5054 227.557L81.5321 235.022C81.452 235.102 81.532 235.182 81.532 235.182C81.532 235.182 81.6121 235.262 81.6921 235.182C83.5531 234.775 86.6346 234.454 94.7454 234.454C95.5592 234.454 96.1261 235.021 96.1261 235.835L96.0389 265.737C96.0388 266.551 95.4719 267.118 94.6581 267.118L63.529 267.125C62.5552 267.125 61.588 266.478 61.0945 265.664L53.6309 252.691C53.5509 252.611 53.4708 252.691 53.4708 252.691C53.4708 252.691 53.3908 252.771 53.4708 252.851C53.8777 254.712 54.1978 257.794 54.1976 265.904C54.1976 266.718 53.6307 267.285 52.8169 267.285L22.8284 267.126C22.0146 267.126 21.4477 266.559 21.4477 265.745L21.5283 234.689C21.5283 233.715 22.182 232.741 22.9891 232.254L35.9625 224.79C36.0425 224.71 35.9625 224.63 35.9625 224.63C35.9625 224.63 35.8824 224.55 35.8024 224.63C33.9414 225.037 30.8599 225.358 22.7491 225.358C21.9353 225.358 21.3684 224.791 21.3684 223.977L21.3689 194.149C21.369 193.335 21.9359 192.768 22.7497 192.768L53.8855 192.767C54.8593 192.767 55.8264 193.414 56.32 194.228L63.7836 207.201C63.8636 207.281 63.9436 207.201 63.9436 207.201C63.9436 207.201 64.0237 207.121 63.9436 207.041C63.5368 205.18 63.2167 202.098 63.2168 193.988C63.2168 193.174 63.7838 192.607 64.5976 192.607L94.426 192.606C95.3999 192.606 96.0468 193.253 95.9668 193.987Z" fill="#00D9FA"/>
<path d="M63.4402 146.244L76.4135 146.251L76.4935 146.331C76.5736 146.411 76.4935 146.491 76.4935 146.491L64.7343 153.221C63.8472 153.627 63.2736 154.521 63.2736 155.655L63.2806 168.628L63.2005 168.708C63.1205 168.788 63.0404 168.708 63.0404 168.708L56.3101 156.949C55.9033 156.062 55.0095 155.488 53.8755 155.488L40.9023 155.481L40.8223 155.401C40.7422 155.321 40.8223 155.241 40.8223 155.241L52.5814 148.511C53.4685 148.104 54.0422 147.211 54.0421 146.077L54.0352 133.104L54.1153 133.024C54.1953 132.943 54.2753 133.024 54.2753 133.024L61.0056 144.783C61.5659 145.677 62.4664 146.244 63.4402 146.244ZM21.5117 115.027L21.5123 146.163C21.5123 147.137 22.166 148.111 22.9731 148.598L35.9465 156.062C36.0265 156.142 35.9465 156.222 35.9465 156.222C35.9465 156.222 35.8664 156.302 35.7864 156.222C33.9254 155.815 30.8439 155.494 22.7331 155.494C21.9193 155.494 21.3524 156.061 21.3524 156.875L21.4397 186.777C21.4397 187.591 22.0066 188.158 22.8204 188.158L53.9495 188.165C54.9233 188.165 55.8905 187.518 56.384 186.704L63.8476 173.731C63.9276 173.651 64.0077 173.731 64.0077 173.731C64.0077 173.731 64.0877 173.811 64.0077 173.891C63.6008 175.752 63.2807 178.834 63.2809 186.944C63.2809 187.758 63.8479 188.325 64.6616 188.325L94.6501 188.166C95.4639 188.166 96.0308 187.599 96.0308 186.785L95.9502 155.729C95.9502 154.755 95.2965 153.781 94.4894 153.295L81.5161 145.831C81.436 145.75 81.5161 145.67 81.5161 145.67C81.5161 145.67 81.5961 145.59 81.6761 145.67C83.5371 146.077 86.6187 146.398 94.7294 146.398C95.5432 146.398 96.1101 145.831 96.1101 145.017L96.1096 115.189C96.1096 114.375 95.5426 113.808 94.7288 113.808L63.5931 113.807C62.6192 113.807 61.6521 114.454 61.1585 115.268L53.695 128.241C53.6149 128.321 53.5349 128.241 53.5349 128.241C53.5349 128.241 53.4548 128.161 53.5349 128.081C53.9417 126.22 54.2618 123.139 54.2617 115.028C54.2617 114.214 53.6947 113.647 52.881 113.647L23.0525 113.646C22.0787 113.646 21.4317 114.293 21.5117 115.027Z" fill="#673CFF"/>
</g>
<defs>
<clipPath id="clip0_19_17">
<rect width="739" height="317" fill="white"/>
</clipPath>
</defs>
</svg>
